<?xml version="1.0" standalone="no"?>
<!DOCTYPE svg PUBLIC "-//W3C//DTD SVG 20010904//EN"
 "http://www.w3.org/TR/2001/REC-SVG-20010904/DTD/svg10.dtd">
<svg version="1.0" xmlns="http://www.w3.org/2000/svg"
 width="256.000000pt" height="256.000000pt" viewBox="0 0 256.000000 256.000000"
 preserveAspectRatio="xMidYMid meet">

<g transform="translate(0.000000,256.000000) scale(0.100000,-0.100000)"
fill="#000000" stroke="none">
<path d="M1130 2544 c-196 -26 -367 -86 -520 -182 -177 -112 -299 -234 -412
-412 -100 -160 -156 -323 -183 -538 -16 -123 -16 -141 0 -264 53 -415 252
-734 595 -950 160 -100 323 -156 538 -183 123 -16 141 -16 264 0 215 27 378
83 538 183 177 112 299 234 412 412 100 160 156 323 183 538 16 123 16 141 0
264 -27 215 -83 378 -183 538 -112 177 -234 299 -412 412 -157 99 -321 155
-529 182 -142 19 -152 19 -291 0z m201 -568 c24 -16 44 -43 59 -78 20 -46 22
-64 17 -148 -3 -64 -13 -121 -31 -175 -14 -44 -26 -85 -26 -92 0 -15 107 -150
178 -225 l55 -58 71 0 c146 0 278 -36 334 -91 120 -118 10 -286 -165 -250 -74
15 -121 44 -221 136 l-83 77 -62 -7 c-63 -7 -221 -37 -289 -55 -33 -9 -42 -21
-98 -118 -123 -217 -198 -292 -293 -292 -40 0 -53 6 -87 36 -97 87 -67 204 84
325 54 44 153 99 237 132 33 14 40 25 114 191 l78 176 -36 77 c-45 97 -56 147
-57 248 0 64 5 90 23 125 43 86 127 114 198 66z"/>
<path d="M1246 1854 c-10 -25 -7 -108 5 -165 14 -67 28 -48 36 51 7 88 -21
167 -41 114z"/>
<path d="M1274 1303 c-9 -21 -26 -63 -39 -93 -13 -30 -23 -56 -22 -57 3 -2
198 34 201 38 2 2 -25 37 -61 77 l-64 73 -15 -38z"/>
<path d="M1745 1045 c44 -38 80 -55 120 -57 40 -1 50 5 41 27 -8 22 -64 44
-133 50 l-58 6 30 -26z"/>
<path d="M869 873 c-58 -44 -109 -102 -109 -125 0 -17 30 -20 53 -5 25 16 132
165 124 173 -2 3 -33 -17 -68 -43z"/>
</g>
</svg>
