<svg width="419" height="313" viewBox="0 0 419 313" fill="none" xmlns="http://www.w3.org/2000/svg">
<rect x="118" y="61" width="183" height="190" rx="57" fill="white"/>
<g clip-path="url(#clip0)">
<path d="M193.735 99.7995C175.169 101.17 159.385 102.43 158.643 102.577C156.563 102.947 154.67 104.355 153.78 106.207L153 107.837L153.075 146.687L153.186 185.537L154.374 187.944C155.043 189.277 159.573 195.5 164.512 201.905C174.279 214.533 174.983 215.238 178.696 215.608C179.774 215.718 187.869 215.348 196.633 214.831C205.435 214.276 219.544 213.423 228.012 212.943C264.18 210.753 262.322 210.938 264.4 209.161C267 207.013 266.814 210.531 266.925 163.313C267 123.278 266.962 120.651 266.368 119.428C265.664 118.058 264.4 117.095 247.912 105.54C236.884 97.8369 236.105 97.4294 231.164 97.3544C229.123 97.2818 212.264 98.392 193.735 99.7995ZM235.473 104.872C237.032 105.575 248.434 113.5 250.103 115.02C250.55 115.465 250.698 115.835 250.474 116.058C249.955 116.503 179.398 120.688 177.357 120.391C176.43 120.243 175.056 119.688 174.276 119.168C171.045 116.983 163.025 110.428 163.025 109.948C163.025 108.688 162.765 108.688 194.219 106.43C200.235 106.022 210.113 105.282 216.129 104.8C229.16 103.762 233.061 103.8 235.473 104.872ZM257.902 125.131C258.421 125.649 258.868 126.649 259.016 127.611C259.126 128.501 259.201 145.092 259.126 164.423C259.016 197.605 258.978 199.68 258.346 200.643C257.975 201.235 257.233 201.865 256.674 202.05C255.117 202.68 181.183 206.866 179.661 206.421C178.957 206.236 177.989 205.643 177.47 205.125L176.578 204.163L176.467 168.388C176.392 143.279 176.467 132.169 176.766 131.169C176.989 130.429 177.545 129.539 178.029 129.244C178.698 128.799 183.08 128.429 198.157 127.541C208.741 126.948 225.117 125.948 234.512 125.393C256.862 124.021 256.789 124.021 257.902 125.131Z" fill="black"/>
<path d="M238.035 137.389C234.024 137.649 230.459 138.019 230.05 138.242C228.824 138.872 228.082 139.909 227.934 141.094C227.824 142.317 228.195 142.464 232.204 142.947L233.949 143.169V158.983C233.949 168.388 233.801 174.611 233.615 174.426C233.43 174.203 228.158 166.205 221.88 156.65C215.605 147.059 210.406 139.169 210.331 139.096C210.256 139.021 206.172 139.244 201.271 139.579C195.254 139.986 191.95 140.356 191.281 140.726C190.203 141.281 189.015 143.244 189.015 144.542C189.015 145.319 190.426 145.727 193.397 145.727H194.956V191.204L192.432 191.982C190.464 192.574 189.794 192.944 189.461 193.684C188.867 194.945 188.904 196.092 189.498 196.092C189.722 196.092 193.918 195.832 198.744 195.537C208.288 194.982 209.363 194.722 210.366 192.759C210.664 192.167 210.923 191.537 210.923 191.352C210.923 191.204 209.624 190.759 208.062 190.389C206.465 190.019 204.869 189.649 204.535 189.574C203.903 189.389 203.866 188.242 203.866 172.316V155.242L215.155 172.908C227 191.424 228.486 193.537 230.306 194.462C232.572 195.647 238.328 194.832 241.224 192.944L242.116 192.389L242.191 167.133L242.302 141.839L244.27 141.469C246.609 141.024 247.687 139.951 247.687 138.099C247.687 136.914 247.612 136.839 246.498 136.876C245.834 136.907 242.008 137.129 238.035 137.389Z" fill="black"/>
</g>
<defs>
<clipPath id="clip0">
<rect x="153" y="96" width="114" height="121" fill="white"/>
</clipPath>
</defs>
</svg>
